{
	"asset":{
		"generator":"Khronos glTF Blender I/O v5.1.19",
		"version":"2.0"
	},
	"scene":0,
	"scenes":[
		{
			"name":"Scene",
			"nodes":[
				0,
				1
			]
		}
	],
	"nodes":[
		{
			"mesh":0,
			"name":"Cube"
		},
		{
			"mesh":1,
			"name":"Cube.001"
		}
	],
	"materials":[
		{
			"doubleSided":true,
			"name":"Grass_Ground",
			"normalTexture":{
				"index":0
			},
			"pbrMetallicRoughness":{
				"baseColorTexture":{
					"index":1
				},
				"metallicFactor":0
			}
		},
		{
			"doubleSided":true,
			"name":"Grass_Wall",
			"normalTexture":{
				"index":2
			},
			"pbrMetallicRoughness":{
				"baseColorTexture":{
					"index":3
				},
				"metallicFactor":0
			}
		},
		{
			"doubleSided":true,
			"name":"Dirt_Ground",
			"normalTexture":{
				"index":4
			},
			"pbrMetallicRoughness":{
				"baseColorTexture":{
					"index":5
				},
				"metallicFactor":0
			}
		},
		{
			"doubleSided":true,
			"name":"Wood_Ground",
			"normalTexture":{
				"index":6
			},
			"pbrMetallicRoughness":{
				"baseColorTexture":{
					"index":7
				},
				"metallicFactor":0
			}
		},
		{
			"doubleSided":true,
			"name":"Wood_Wall",
			"normalTexture":{
				"index":8
			},
			"pbrMetallicRoughness":{
				"baseColorTexture":{
					"index":9
				},
				"metallicFactor":0
			}
		}
	],
	"meshes":[
		{
			"name":"Cube",
			"primitives":[
				{
					"attributes":{
						"POSITION":0,
						"NORMAL":1,
						"TEXCOORD_0":2
					},
					"indices":3,
					"material":0
				},
				{
					"attributes":{
						"POSITION":4,
						"NORMAL":5,
						"TEXCOORD_0":6
					},
					"indices":7,
					"material":1
				},
				{
					"attributes":{
						"POSITION":8,
						"NORMAL":9,
						"TEXCOORD_0":10
					},
					"indices":11,
					"material":2
				}
			]
		},
		{
			"name":"Cube.001",
			"primitives":[
				{
					"attributes":{
						"POSITION":12,
						"NORMAL":13,
						"TEXCOORD_0":14
					},
					"indices":15,
					"material":3
				},
				{
					"attributes":{
						"POSITION":16,
						"NORMAL":17,
						"TEXCOORD_0":18
					},
					"indices":19,
					"material":4
				}
			]
		}
	],
	"textures":[
		{
			"sampler":0,
			"source":0
		},
		{
			"sampler":0,
			"source":1
		},
		{
			"sampler":0,
			"source":0
		},
		{
			"sampler":0,
			"source":1
		},
		{
			"sampler":0,
			"source":2
		},
		{
			"sampler":0,
			"source":3
		},
		{
			"sampler":0,
			"source":4
		},
		{
			"sampler":0,
			"source":5
		},
		{
			"sampler":0,
			"source":4
		},
		{
			"sampler":0,
			"source":5
		}
	],
	"images":[
		{
			"mimeType":"image/png",
			"name":"GrassGround2_Normal",
			"uri":"GrassGround2_Normal.png"
		},
		{
			"mimeType":"image/png",
			"name":"GrassGround2",
			"uri":"GrassGround2.png"
		},
		{
			"mimeType":"image/png",
			"name":"DirtGutter_Normal",
			"uri":"DirtGutter_Normal.png"
		},
		{
			"mimeType":"image/png",
			"name":"DirtGutter",
			"uri":"DirtGutter.png"
		},
		{
			"mimeType":"image/png",
			"name":"WoodenWall_Normal",
			"uri":"WoodenWall_Normal.png"
		},
		{
			"mimeType":"image/png",
			"name":"WoodenWall",
			"uri":"WoodenWall.png"
		}
	],
	"accessors":[
		{
			"bufferView":0,
			"componentType":5126,
			"count":48,
			"max":[
				2.5,
				0,
				11
			],
			"min":[
				-2.5,
				-0.5,
				-11
			],
			"type":"VEC3"
		},
		{
			"bufferView":1,
			"componentType":5126,
			"count":48,
			"type":"VEC3"
		},
		{
			"bufferView":2,
			"componentType":5126,
			"count":48,
			"type":"VEC2"
		},
		{
			"bufferView":3,
			"componentType":5123,
			"count":138,
			"type":"SCALAR"
		},
		{
			"bufferView":4,
			"componentType":5126,
			"count":52,
			"max":[
				2.5,
				0,
				11
			],
			"min":[
				-2.5,
				-0.5,
				-11
			],
			"type":"VEC3"
		},
		{
			"bufferView":5,
			"componentType":5126,
			"count":52,
			"type":"VEC3"
		},
		{
			"bufferView":6,
			"componentType":5126,
			"count":52,
			"type":"VEC2"
		},
		{
			"bufferView":7,
			"componentType":5123,
			"count":108,
			"type":"SCALAR"
		},
		{
			"bufferView":8,
			"componentType":5126,
			"count":36,
			"max":[
				2.299999952316284,
				0,
				-10.005000114440918
			],
			"min":[
				-2.3000001907348633,
				-0.30000001192092896,
				-10.800000190734863
			],
			"type":"VEC3"
		},
		{
			"bufferView":9,
			"componentType":5126,
			"count":36,
			"type":"VEC3"
		},
		{
			"bufferView":10,
			"componentType":5126,
			"count":36,
			"type":"VEC2"
		},
		{
			"bufferView":11,
			"componentType":5123,
			"count":54,
			"type":"SCALAR"
		},
		{
			"bufferView":12,
			"componentType":5126,
			"count":48,
			"max":[
				2.5,
				0.19999998807907104,
				11
			],
			"min":[
				-2.5,
				0,
				-11
			],
			"type":"VEC3"
		},
		{
			"bufferView":13,
			"componentType":5126,
			"count":48,
			"type":"VEC3"
		},
		{
			"bufferView":14,
			"componentType":5126,
			"count":48,
			"type":"VEC2"
		},
		{
			"bufferView":15,
			"componentType":5123,
			"count":120,
			"type":"SCALAR"
		},
		{
			"bufferView":16,
			"componentType":5126,
			"count":80,
			"max":[
				2.5,
				0.19999998807907104,
				11
			],
			"min":[
				-2.5,
				0,
				-11
			],
			"type":"VEC3"
		},
		{
			"bufferView":17,
			"componentType":5126,
			"count":80,
			"type":"VEC3"
		},
		{
			"bufferView":18,
			"componentType":5126,
			"count":80,
			"type":"VEC2"
		},
		{
			"bufferView":19,
			"componentType":5123,
			"count":144,
			"type":"SCALAR"
		}
	],
	"bufferViews":[
		{
			"buffer":0,
			"byteLength":576,
			"byteOffset":0,
			"target":34962
		},
		{
			"buffer":0,
			"byteLength":576,
			"byteOffset":576,
			"target":34962
		},
		{
			"buffer":0,
			"byteLength":384,
			"byteOffset":1152,
			"target":34962
		},
		{
			"buffer":0,
			"byteLength":276,
			"byteOffset":1536,
			"target":34963
		},
		{
			"buffer":0,
			"byteLength":624,
			"byteOffset":1812,
			"target":34962
		},
		{
			"buffer":0,
			"byteLength":624,
			"byteOffset":2436,
			"target":34962
		},
		{
			"buffer":0,
			"byteLength":416,
			"byteOffset":3060,
			"target":34962
		},
		{
			"buffer":0,
			"byteLength":216,
			"byteOffset":3476,
			"target":34963
		},
		{
			"buffer":0,
			"byteLength":432,
			"byteOffset":3692,
			"target":34962
		},
		{
			"buffer":0,
			"byteLength":432,
			"byteOffset":4124,
			"target":34962
		},
		{
			"buffer":0,
			"byteLength":288,
			"byteOffset":4556,
			"target":34962
		},
		{
			"buffer":0,
			"byteLength":108,
			"byteOffset":4844,
			"target":34963
		},
		{
			"buffer":0,
			"byteLength":576,
			"byteOffset":4952,
			"target":34962
		},
		{
			"buffer":0,
			"byteLength":576,
			"byteOffset":5528,
			"target":34962
		},
		{
			"buffer":0,
			"byteLength":384,
			"byteOffset":6104,
			"target":34962
		},
		{
			"buffer":0,
			"byteLength":240,
			"byteOffset":6488,
			"target":34963
		},
		{
			"buffer":0,
			"byteLength":960,
			"byteOffset":6728,
			"target":34962
		},
		{
			"buffer":0,
			"byteLength":960,
			"byteOffset":7688,
			"target":34962
		},
		{
			"buffer":0,
			"byteLength":640,
			"byteOffset":8648,
			"target":34962
		},
		{
			"buffer":0,
			"byteLength":288,
			"byteOffset":9288,
			"target":34963
		}
	],
	"samplers":[
		{
			"magFilter":9729,
			"minFilter":9987
		}
	],
	"buffers":[
		{
			"byteLength":9576,
			"uri":"Stage05.bin"
		}
	]
}
