{
	"asset":{
		"generator":"Khronos glTF Blender I/O v5.1.19",
		"version":"2.0"
	},
	"scene":0,
	"scenes":[
		{
			"name":"Scene",
			"nodes":[
				0,
				1,
				2,
				3,
				4,
				5,
				6
			]
		}
	],
	"nodes":[
		{
			"mesh":0,
			"name":"Wall.001"
		},
		{
			"mesh":1,
			"name":"Wall corner.002"
		},
		{
			"mesh":2,
			"name":"Wall corner.003"
		},
		{
			"mesh":3,
			"name":"Wall corner.005"
		},
		{
			"mesh":4,
			"name":"Wall corner.006"
		},
		{
			"mesh":5,
			"name":"Wall.002"
		},
		{
			"mesh":6,
			"name":"Wall.003"
		}
	],
	"materials":[
		{
			"doubleSided":true,
			"name":"Material.027",
			"pbrMetallicRoughness":{
				"baseColorFactor":[
					0.22182732820510864,
					0.05371103808283806,
					0,
					1
				],
				"metallicFactor":0
			}
		},
		{
			"doubleSided":true,
			"name":"Material.025",
			"pbrMetallicRoughness":{
				"baseColorFactor":[
					0.22182732820510864,
					0.05371103808283806,
					0,
					1
				],
				"metallicFactor":0
			}
		},
		{
			"doubleSided":true,
			"name":"Material.026",
			"pbrMetallicRoughness":{
				"baseColorFactor":[
					0.22182732820510864,
					0.05371103808283806,
					0,
					1
				],
				"metallicFactor":0
			}
		},
		{
			"doubleSided":true,
			"name":"Material.029",
			"pbrMetallicRoughness":{
				"baseColorFactor":[
					0.22182732820510864,
					0.05371103808283806,
					0,
					1
				],
				"metallicFactor":0
			}
		},
		{
			"doubleSided":true,
			"name":"Material.033",
			"pbrMetallicRoughness":{
				"baseColorFactor":[
					0,
					0.36029165983200073,
					0.016277894377708435,
					1
				],
				"metallicFactor":0
			}
		}
	],
	"meshes":[
		{
			"name":"Cube.003",
			"primitives":[
				{
					"attributes":{
						"POSITION":0,
						"NORMAL":1,
						"TEXCOORD_0":2
					},
					"indices":3,
					"material":0
				}
			]
		},
		{
			"name":"Cube.004",
			"primitives":[
				{
					"attributes":{
						"POSITION":4,
						"NORMAL":5,
						"TEXCOORD_0":6
					},
					"indices":7,
					"material":0
				}
			]
		},
		{
			"name":"Cube.013",
			"primitives":[
				{
					"attributes":{
						"POSITION":8,
						"NORMAL":9,
						"TEXCOORD_0":10
					},
					"indices":11,
					"material":0
				}
			]
		},
		{
			"name":"Cube.006",
			"primitives":[
				{
					"attributes":{
						"POSITION":12,
						"NORMAL":13,
						"TEXCOORD_0":14
					},
					"indices":15,
					"material":1
				}
			]
		},
		{
			"name":"Cube.014",
			"primitives":[
				{
					"attributes":{
						"POSITION":16,
						"NORMAL":17,
						"TEXCOORD_0":18
					},
					"indices":19,
					"material":2
				}
			]
		},
		{
			"name":"Cube.019",
			"primitives":[
				{
					"attributes":{
						"POSITION":20,
						"NORMAL":21,
						"TEXCOORD_0":22
					},
					"indices":23,
					"material":3
				}
			]
		},
		{
			"name":"Cube.001",
			"primitives":[
				{
					"attributes":{
						"POSITION":24,
						"NORMAL":25,
						"TEXCOORD_0":26
					},
					"indices":27,
					"material":4
				}
			]
		}
	],
	"accessors":[
		{
			"bufferView":0,
			"componentType":5126,
			"count":31,
			"max":[
				4.000000476837158,
				0.500001072883606,
				4
			],
			"min":[
				-4,
				-1.4305119293567259e-06,
				2.999999761581421
			],
			"type":"VEC3"
		},
		{
			"bufferView":1,
			"componentType":5126,
			"count":31,
			"type":"VEC3"
		},
		{
			"bufferView":2,
			"componentType":5126,
			"count":31,
			"type":"VEC2"
		},
		{
			"bufferView":3,
			"componentType":5123,
			"count":90,
			"type":"SCALAR"
		},
		{
			"bufferView":4,
			"componentType":5126,
			"count":64,
			"max":[
				53.0000114440918,
				3.000002861022949,
				-15.999998092651367
			],
			"min":[
				37.9999885559082,
				-1.2277297400942189e-06,
				-57
			],
			"type":"VEC3"
		},
		{
			"bufferView":5,
			"componentType":5126,
			"count":64,
			"type":"VEC3"
		},
		{
			"bufferView":6,
			"componentType":5126,
			"count":64,
			"type":"VEC2"
		},
		{
			"bufferView":7,
			"componentType":5123,
			"count":132,
			"type":"SCALAR"
		},
		{
			"bufferView":8,
			"componentType":5126,
			"count":42,
			"max":[
				28.005508422851562,
				0.5000004768371582,
				3.000000238418579
			],
			"min":[
				3.0055088996887207,
				2.980232238769531e-07,
				-17.000003814697266
			],
			"type":"VEC3"
		},
		{
			"bufferView":9,
			"componentType":5126,
			"count":42,
			"type":"VEC3"
		},
		{
			"bufferView":10,
			"componentType":5126,
			"count":42,
			"type":"VEC2"
		},
		{
			"bufferView":11,
			"componentType":5123,
			"count":84,
			"type":"SCALAR"
		},
		{
			"bufferView":12,
			"componentType":5126,
			"count":44,
			"max":[
				11.000001907348633,
				0.5000004768371582,
				2.999999761581421
			],
			"min":[
				-3.99999737739563,
				2.980232238769531e-07,
				-24.000003814697266
			],
			"type":"VEC3"
		},
		{
			"bufferView":13,
			"componentType":5126,
			"count":44,
			"type":"VEC3"
		},
		{
			"bufferView":14,
			"componentType":5126,
			"count":44,
			"type":"VEC2"
		},
		{
			"bufferView":15,
			"componentType":5123,
			"count":84,
			"type":"SCALAR"
		},
		{
			"bufferView":16,
			"componentType":5126,
			"count":60,
			"max":[
				45.5000114440918,
				3.00000262260437,
				-22.999998092651367
			],
			"min":[
				21.999990463256836,
				-1.2277298537810566e-06,
				-57
			],
			"type":"VEC3"
		},
		{
			"bufferView":17,
			"componentType":5126,
			"count":60,
			"type":"VEC3"
		},
		{
			"bufferView":18,
			"componentType":5126,
			"count":60,
			"type":"VEC2"
		},
		{
			"bufferView":19,
			"componentType":5123,
			"count":132,
			"type":"SCALAR"
		},
		{
			"bufferView":20,
			"componentType":5126,
			"count":32,
			"max":[
				53,
				3,
				-57
			],
			"min":[
				44.5,
				2.5,
				-58
			],
			"type":"VEC3"
		},
		{
			"bufferView":21,
			"componentType":5126,
			"count":32,
			"type":"VEC3"
		},
		{
			"bufferView":22,
			"componentType":5126,
			"count":32,
			"type":"VEC2"
		},
		{
			"bufferView":23,
			"componentType":5123,
			"count":84,
			"type":"SCALAR"
		},
		{
			"bufferView":24,
			"componentType":5126,
			"count":268,
			"max":[
				53,
				2.4999938011169434,
				4
			],
			"min":[
				-4,
				-0.5000061988830566,
				-58
			],
			"type":"VEC3"
		},
		{
			"bufferView":25,
			"componentType":5126,
			"count":268,
			"type":"VEC3"
		},
		{
			"bufferView":26,
			"componentType":5126,
			"count":268,
			"type":"VEC2"
		},
		{
			"bufferView":27,
			"componentType":5123,
			"count":900,
			"type":"SCALAR"
		}
	],
	"bufferViews":[
		{
			"buffer":0,
			"byteLength":372,
			"byteOffset":0,
			"target":34962
		},
		{
			"buffer":0,
			"byteLength":372,
			"byteOffset":372,
			"target":34962
		},
		{
			"buffer":0,
			"byteLength":248,
			"byteOffset":744,
			"target":34962
		},
		{
			"buffer":0,
			"byteLength":180,
			"byteOffset":992,
			"target":34963
		},
		{
			"buffer":0,
			"byteLength":768,
			"byteOffset":1172,
			"target":34962
		},
		{
			"buffer":0,
			"byteLength":768,
			"byteOffset":1940,
			"target":34962
		},
		{
			"buffer":0,
			"byteLength":512,
			"byteOffset":2708,
			"target":34962
		},
		{
			"buffer":0,
			"byteLength":264,
			"byteOffset":3220,
			"target":34963
		},
		{
			"buffer":0,
			"byteLength":504,
			"byteOffset":3484,
			"target":34962
		},
		{
			"buffer":0,
			"byteLength":504,
			"byteOffset":3988,
			"target":34962
		},
		{
			"buffer":0,
			"byteLength":336,
			"byteOffset":4492,
			"target":34962
		},
		{
			"buffer":0,
			"byteLength":168,
			"byteOffset":4828,
			"target":34963
		},
		{
			"buffer":0,
			"byteLength":528,
			"byteOffset":4996,
			"target":34962
		},
		{
			"buffer":0,
			"byteLength":528,
			"byteOffset":5524,
			"target":34962
		},
		{
			"buffer":0,
			"byteLength":352,
			"byteOffset":6052,
			"target":34962
		},
		{
			"buffer":0,
			"byteLength":168,
			"byteOffset":6404,
			"target":34963
		},
		{
			"buffer":0,
			"byteLength":720,
			"byteOffset":6572,
			"target":34962
		},
		{
			"buffer":0,
			"byteLength":720,
			"byteOffset":7292,
			"target":34962
		},
		{
			"buffer":0,
			"byteLength":480,
			"byteOffset":8012,
			"target":34962
		},
		{
			"buffer":0,
			"byteLength":264,
			"byteOffset":8492,
			"target":34963
		},
		{
			"buffer":0,
			"byteLength":384,
			"byteOffset":8756,
			"target":34962
		},
		{
			"buffer":0,
			"byteLength":384,
			"byteOffset":9140,
			"target":34962
		},
		{
			"buffer":0,
			"byteLength":256,
			"byteOffset":9524,
			"target":34962
		},
		{
			"buffer":0,
			"byteLength":168,
			"byteOffset":9780,
			"target":34963
		},
		{
			"buffer":0,
			"byteLength":3216,
			"byteOffset":9948,
			"target":34962
		},
		{
			"buffer":0,
			"byteLength":3216,
			"byteOffset":13164,
			"target":34962
		},
		{
			"buffer":0,
			"byteLength":2144,
			"byteOffset":16380,
			"target":34962
		},
		{
			"buffer":0,
			"byteLength":1800,
			"byteOffset":18524,
			"target":34963
		}
	],
	"buffers":[
		{
			"byteLength":20324,
			"uri":"Stage02.bin"
		}
	]
}
