{
	"asset":{
		"generator":"Khronos glTF Blender I/O v5.1.19",
		"version":"2.0"
	},
	"scene":0,
	"scenes":[
		{
			"name":"Scene",
			"nodes":[
				0
			]
		}
	],
	"nodes":[
		{
			"mesh":0,
			"name":"pin"
		}
	],
	"materials":[
		{
			"doubleSided":true,
			"name":"white",
			"pbrMetallicRoughness":{
				"metallicFactor":0,
				"roughnessFactor":0.5
			}
		},
		{
			"doubleSided":true,
			"name":"red",
			"pbrMetallicRoughness":{
				"baseColorFactor":[
					0.552004873752594,
					0,
					0.003346469718962908,
					1
				],
				"metallicFactor":0,
				"roughnessFactor":0.5
			}
		}
	],
	"meshes":[
		{
			"name":"\u0426\u0438\u043b\u0438\u043d\u0434\u0440",
			"primitives":[
				{
					"attributes":{
						"POSITION":0,
						"NORMAL":1,
						"TEXCOORD_0":2
					},
					"indices":3,
					"material":0
				},
				{
					"attributes":{
						"POSITION":4,
						"NORMAL":5,
						"TEXCOORD_0":6
					},
					"indices":7,
					"material":1
				}
			]
		}
	],
	"accessors":[
		{
			"bufferView":0,
			"componentType":5126,
			"count":1298,
			"max":[
				0.05999999865889549,
				0.3800061047077179,
				0.05999999865889549
			],
			"min":[
				-0.05999999865889549,
				6.094574928283691e-06,
				-0.05999999865889549
			],
			"type":"VEC3"
		},
		{
			"bufferView":1,
			"componentType":5126,
			"count":1298,
			"type":"VEC3"
		},
		{
			"bufferView":2,
			"componentType":5126,
			"count":1298,
			"type":"VEC2"
		},
		{
			"bufferView":3,
			"componentType":5123,
			"count":6948,
			"type":"SCALAR"
		},
		{
			"bufferView":4,
			"componentType":5126,
			"count":84,
			"max":[
				0.025862522423267365,
				0.29485270380973816,
				0.025862522423267365
			],
			"min":[
				-0.025862522423267365,
				0.2744787931442261,
				-0.025862522423267365
			],
			"type":"VEC3"
		},
		{
			"bufferView":5,
			"componentType":5126,
			"count":84,
			"type":"VEC3"
		},
		{
			"bufferView":6,
			"componentType":5126,
			"count":84,
			"type":"VEC2"
		},
		{
			"bufferView":7,
			"componentType":5123,
			"count":240,
			"type":"SCALAR"
		}
	],
	"bufferViews":[
		{
			"buffer":0,
			"byteLength":15576,
			"byteOffset":0,
			"target":34962
		},
		{
			"buffer":0,
			"byteLength":15576,
			"byteOffset":15576,
			"target":34962
		},
		{
			"buffer":0,
			"byteLength":10384,
			"byteOffset":31152,
			"target":34962
		},
		{
			"buffer":0,
			"byteLength":13896,
			"byteOffset":41536,
			"target":34963
		},
		{
			"buffer":0,
			"byteLength":1008,
			"byteOffset":55432,
			"target":34962
		},
		{
			"buffer":0,
			"byteLength":1008,
			"byteOffset":56440,
			"target":34962
		},
		{
			"buffer":0,
			"byteLength":672,
			"byteOffset":57448,
			"target":34962
		},
		{
			"buffer":0,
			"byteLength":480,
			"byteOffset":58120,
			"target":34963
		}
	],
	"buffers":[
		{
			"byteLength":58600,
			"uri":"pin.bin"
		}
	]
}
