{
	"asset":{
		"generator":"Khronos glTF Blender I/O v5.1.19",
		"version":"2.0"
	},
	"scene":0,
	"scenes":[
		{
			"name":"Scene",
			"nodes":[
				0,
				1
			]
		}
	],
	"nodes":[
		{
			"mesh":0,
			"name":"Wall.002"
		},
		{
			"mesh":1,
			"name":"Cube.002"
		}
	],
	"materials":[
		{
			"doubleSided":true,
			"name":"Material.024",
			"pbrMetallicRoughness":{
				"baseColorFactor":[
					0.2663556635379791,
					0.07818742841482162,
					0.012983033433556557,
					1
				],
				"metallicFactor":0
			}
		},
		{
			"doubleSided":true,
			"name":"Material.025",
			"pbrMetallicRoughness":{
				"baseColorFactor":[
					0.06301002949476242,
					0.36625269055366516,
					0.051269471645355225,
					1
				],
				"metallicFactor":0
			}
		},
		{
			"doubleSided":true,
			"name":"Material",
			"pbrMetallicRoughness":{
				"baseColorFactor":[
					0.07531645148992538,
					0.07531645148992538,
					0.07531645148992538,
					1
				],
				"metallicFactor":0
			}
		}
	],
	"meshes":[
		{
			"name":"Cube.003",
			"primitives":[
				{
					"attributes":{
						"POSITION":0,
						"NORMAL":1,
						"TEXCOORD_0":2
					},
					"indices":3,
					"material":0
				}
			]
		},
		{
			"name":"Cube.013",
			"primitives":[
				{
					"attributes":{
						"POSITION":4,
						"NORMAL":5,
						"TEXCOORD_0":6
					},
					"indices":7,
					"material":1
				},
				{
					"attributes":{
						"POSITION":8,
						"NORMAL":9,
						"TEXCOORD_0":10
					},
					"indices":11,
					"material":2
				}
			]
		}
	],
	"accessors":[
		{
			"bufferView":0,
			"componentType":5126,
			"count":122,
			"max":[
				1.0000003576278687,
				1.7000020742416382,
				10.900001525878906
			],
			"min":[
				-1.0000003576278687,
				-3.5834887057717424e-07,
				-9.90000057220459
			],
			"type":"VEC3"
		},
		{
			"bufferView":1,
			"componentType":5126,
			"count":122,
			"type":"VEC3"
		},
		{
			"bufferView":2,
			"componentType":5126,
			"count":122,
			"type":"VEC2"
		},
		{
			"bufferView":3,
			"componentType":5123,
			"count":294,
			"type":"SCALAR"
		},
		{
			"bufferView":4,
			"componentType":5126,
			"count":232,
			"max":[
				1.0000009536743164,
				1.5,
				10.899999618530273
			],
			"min":[
				-1.0000009536743164,
				-0.5,
				-9.900001525878906
			],
			"type":"VEC3"
		},
		{
			"bufferView":5,
			"componentType":5126,
			"count":232,
			"type":"VEC3"
		},
		{
			"bufferView":6,
			"componentType":5126,
			"count":232,
			"type":"VEC2"
		},
		{
			"bufferView":7,
			"componentType":5123,
			"count":834,
			"type":"SCALAR"
		},
		{
			"bufferView":8,
			"componentType":5126,
			"count":56,
			"max":[
				0.8000009655952454,
				1.5,
				8.200000762939453
			],
			"min":[
				-0.8000009655952454,
				-0.30000001192092896,
				-9.700000762939453
			],
			"type":"VEC3"
		},
		{
			"bufferView":9,
			"componentType":5126,
			"count":56,
			"type":"VEC3"
		},
		{
			"bufferView":10,
			"componentType":5126,
			"count":56,
			"type":"VEC2"
		},
		{
			"bufferView":11,
			"componentType":5123,
			"count":234,
			"type":"SCALAR"
		}
	],
	"bufferViews":[
		{
			"buffer":0,
			"byteLength":1464,
			"byteOffset":0,
			"target":34962
		},
		{
			"buffer":0,
			"byteLength":1464,
			"byteOffset":1464,
			"target":34962
		},
		{
			"buffer":0,
			"byteLength":976,
			"byteOffset":2928,
			"target":34962
		},
		{
			"buffer":0,
			"byteLength":588,
			"byteOffset":3904,
			"target":34963
		},
		{
			"buffer":0,
			"byteLength":2784,
			"byteOffset":4492,
			"target":34962
		},
		{
			"buffer":0,
			"byteLength":2784,
			"byteOffset":7276,
			"target":34962
		},
		{
			"buffer":0,
			"byteLength":1856,
			"byteOffset":10060,
			"target":34962
		},
		{
			"buffer":0,
			"byteLength":1668,
			"byteOffset":11916,
			"target":34963
		},
		{
			"buffer":0,
			"byteLength":672,
			"byteOffset":13584,
			"target":34962
		},
		{
			"buffer":0,
			"byteLength":672,
			"byteOffset":14256,
			"target":34962
		},
		{
			"buffer":0,
			"byteLength":448,
			"byteOffset":14928,
			"target":34962
		},
		{
			"buffer":0,
			"byteLength":468,
			"byteOffset":15376,
			"target":34963
		}
	],
	"buffers":[
		{
			"byteLength":15844,
			"uri":"Stage10.bin"
		}
	]
}
