{
	"asset":{
		"generator":"Khronos glTF Blender I/O v5.1.19",
		"version":"2.0"
	},
	"scene":0,
	"scenes":[
		{
			"name":"Scene",
			"nodes":[
				0,
				1
			]
		}
	],
	"nodes":[
		{
			"mesh":0,
			"name":"Wall.002"
		},
		{
			"mesh":1,
			"name":"Cube.002"
		}
	],
	"materials":[
		{
			"doubleSided":true,
			"name":"Material.003",
			"normalTexture":{
				"index":0
			},
			"pbrMetallicRoughness":{
				"baseColorTexture":{
					"index":1
				},
				"metallicFactor":0
			}
		},
		{
			"doubleSided":true,
			"name":"Material.002",
			"normalTexture":{
				"index":2
			},
			"pbrMetallicRoughness":{
				"baseColorTexture":{
					"index":3
				},
				"metallicFactor":0
			}
		},
		{
			"doubleSided":true,
			"name":"Material.004",
			"normalTexture":{
				"index":4
			},
			"pbrMetallicRoughness":{
				"baseColorTexture":{
					"index":5
				},
				"metallicFactor":0
			}
		},
		{
			"doubleSided":true,
			"name":"Material.005",
			"normalTexture":{
				"index":6
			},
			"pbrMetallicRoughness":{
				"baseColorTexture":{
					"index":7
				},
				"metallicFactor":0
			}
		}
	],
	"meshes":[
		{
			"name":"Cube.003",
			"primitives":[
				{
					"attributes":{
						"POSITION":0,
						"NORMAL":1,
						"TEXCOORD_0":2
					},
					"indices":3,
					"material":0
				}
			]
		},
		{
			"name":"Cube.013",
			"primitives":[
				{
					"attributes":{
						"POSITION":4,
						"NORMAL":5,
						"TEXCOORD_0":6
					},
					"indices":7,
					"material":1
				},
				{
					"attributes":{
						"POSITION":8,
						"NORMAL":9,
						"TEXCOORD_0":10
					},
					"indices":11,
					"material":2
				},
				{
					"attributes":{
						"POSITION":12,
						"NORMAL":13,
						"TEXCOORD_0":14
					},
					"indices":15,
					"material":3
				}
			]
		}
	],
	"textures":[
		{
			"sampler":0,
			"source":0
		},
		{
			"sampler":0,
			"source":1
		},
		{
			"sampler":0,
			"source":2
		},
		{
			"sampler":0,
			"source":3
		},
		{
			"sampler":0,
			"source":4
		},
		{
			"sampler":0,
			"source":5
		},
		{
			"sampler":0,
			"source":6
		},
		{
			"sampler":0,
			"source":7
		}
	],
	"images":[
		{
			"mimeType":"image/png",
			"name":"WoodenWall_Normal",
			"uri":"WoodenWall_Normal.png"
		},
		{
			"mimeType":"image/png",
			"name":"WoodenWall",
			"uri":"WoodenWall.png"
		},
		{
			"mimeType":"image/png",
			"name":"GrassGround2_Normal",
			"uri":"GrassGround2_Normal.png"
		},
		{
			"mimeType":"image/png",
			"name":"GrassGround2",
			"uri":"GrassGround2.png"
		},
		{
			"mimeType":"image/png",
			"name":"DirtGutter_Normal",
			"uri":"DirtGutter_Normal.png"
		},
		{
			"mimeType":"image/png",
			"name":"DirtGutter",
			"uri":"DirtGutter.png"
		},
		{
			"mimeType":"image/png",
			"name":"WoodenSlope_Normal",
			"uri":"WoodenSlope_Normal.png"
		},
		{
			"mimeType":"image/png",
			"name":"WoodenSlope",
			"uri":"WoodenSlope.png"
		}
	],
	"accessors":[
		{
			"bufferView":0,
			"componentType":5126,
			"count":138,
			"max":[
				1.0000003576278687,
				0.2000105381011963,
				10.900001525878906
			],
			"min":[
				-1.0000003576278687,
				-6.594261321879458e-06,
				-9.90000057220459
			],
			"type":"VEC3"
		},
		{
			"bufferView":1,
			"componentType":5126,
			"count":138,
			"type":"VEC3"
		},
		{
			"bufferView":2,
			"componentType":5126,
			"count":138,
			"type":"VEC2"
		},
		{
			"bufferView":3,
			"componentType":5123,
			"count":270,
			"type":"SCALAR"
		},
		{
			"bufferView":4,
			"componentType":5126,
			"count":223,
			"max":[
				1.0000009536743164,
				0,
				10.899999618530273
			],
			"min":[
				-1.0000009536743164,
				-0.5,
				-9.900001525878906
			],
			"type":"VEC3"
		},
		{
			"bufferView":5,
			"componentType":5126,
			"count":223,
			"type":"VEC3"
		},
		{
			"bufferView":6,
			"componentType":5126,
			"count":223,
			"type":"VEC2"
		},
		{
			"bufferView":7,
			"componentType":5123,
			"count":780,
			"type":"SCALAR"
		},
		{
			"bufferView":8,
			"componentType":5126,
			"count":88,
			"max":[
				0.8000009655952454,
				0,
				8.200000762939453
			],
			"min":[
				-0.8000009655952454,
				-0.30000001192092896,
				-9.700000762939453
			],
			"type":"VEC3"
		},
		{
			"bufferView":9,
			"componentType":5126,
			"count":88,
			"type":"VEC3"
		},
		{
			"bufferView":10,
			"componentType":5126,
			"count":88,
			"type":"VEC2"
		},
		{
			"bufferView":11,
			"componentType":5123,
			"count":210,
			"type":"SCALAR"
		},
		{
			"bufferView":12,
			"componentType":5126,
			"count":14,
			"max":[
				0.4000000059604645,
				0.10000000149011612,
				0
			],
			"min":[
				-0.4000000059604645,
				0,
				-1
			],
			"type":"VEC3"
		},
		{
			"bufferView":13,
			"componentType":5126,
			"count":14,
			"type":"VEC3"
		},
		{
			"bufferView":14,
			"componentType":5126,
			"count":14,
			"type":"VEC2"
		},
		{
			"bufferView":15,
			"componentType":5123,
			"count":18,
			"type":"SCALAR"
		}
	],
	"bufferViews":[
		{
			"buffer":0,
			"byteLength":1656,
			"byteOffset":0,
			"target":34962
		},
		{
			"buffer":0,
			"byteLength":1656,
			"byteOffset":1656,
			"target":34962
		},
		{
			"buffer":0,
			"byteLength":1104,
			"byteOffset":3312,
			"target":34962
		},
		{
			"buffer":0,
			"byteLength":540,
			"byteOffset":4416,
			"target":34963
		},
		{
			"buffer":0,
			"byteLength":2676,
			"byteOffset":4956,
			"target":34962
		},
		{
			"buffer":0,
			"byteLength":2676,
			"byteOffset":7632,
			"target":34962
		},
		{
			"buffer":0,
			"byteLength":1784,
			"byteOffset":10308,
			"target":34962
		},
		{
			"buffer":0,
			"byteLength":1560,
			"byteOffset":12092,
			"target":34963
		},
		{
			"buffer":0,
			"byteLength":1056,
			"byteOffset":13652,
			"target":34962
		},
		{
			"buffer":0,
			"byteLength":1056,
			"byteOffset":14708,
			"target":34962
		},
		{
			"buffer":0,
			"byteLength":704,
			"byteOffset":15764,
			"target":34962
		},
		{
			"buffer":0,
			"byteLength":420,
			"byteOffset":16468,
			"target":34963
		},
		{
			"buffer":0,
			"byteLength":168,
			"byteOffset":16888,
			"target":34962
		},
		{
			"buffer":0,
			"byteLength":168,
			"byteOffset":17056,
			"target":34962
		},
		{
			"buffer":0,
			"byteLength":112,
			"byteOffset":17224,
			"target":34962
		},
		{
			"buffer":0,
			"byteLength":36,
			"byteOffset":17336,
			"target":34963
		}
	],
	"samplers":[
		{
			"magFilter":9729,
			"minFilter":9987
		}
	],
	"buffers":[
		{
			"byteLength":17372,
			"uri":"Stage04.bin"
		}
	]
}
