{
	"asset":{
		"generator":"Khronos glTF Blender I/O v5.1.19",
		"version":"2.0"
	},
	"scene":0,
	"scenes":[
		{
			"name":"Scene",
			"nodes":[
				0
			]
		}
	],
	"nodes":[
		{
			"mesh":0,
			"name":"bowling_ball"
		}
	],
	"materials":[
		{
			"doubleSided":true,
			"name":"red",
			"normalTexture":{
				"index":0
			},
			"pbrMetallicRoughness":{
				"baseColorTexture":{
					"index":1
				},
				"metallicFactor":0,
				"roughnessFactor":0.5
			}
		}
	],
	"meshes":[
		{
			"name":"\u0421\u0444\u0435\u0440\u0430",
			"primitives":[
				{
					"attributes":{
						"POSITION":0,
						"NORMAL":1,
						"TEXCOORD_0":2
					},
					"indices":3,
					"material":0
				}
			]
		}
	],
	"textures":[
		{
			"sampler":0,
			"source":0
		},
		{
			"sampler":0,
			"source":1
		}
	],
	"images":[
		{
			"mimeType":"image/png",
			"name":"MarbleYellow_Normal",
			"uri":"MarbleYellow_Normal.png"
		},
		{
			"mimeType":"image/png",
			"name":"MarbleYellow",
			"uri":"MarbleYellow.png"
		}
	],
	"accessors":[
		{
			"bufferView":0,
			"componentType":5126,
			"count":1076,
			"max":[
				0.10500002652406693,
				0.10499999672174454,
				0.10499996691942215
			],
			"min":[
				-0.10499995946884155,
				-0.10499999672174454,
				-0.10500003397464752
			],
			"type":"VEC3"
		},
		{
			"bufferView":1,
			"componentType":5126,
			"count":1076,
			"type":"VEC3"
		},
		{
			"bufferView":2,
			"componentType":5126,
			"count":1076,
			"type":"VEC2"
		},
		{
			"bufferView":3,
			"componentType":5123,
			"count":4686,
			"type":"SCALAR"
		}
	],
	"bufferViews":[
		{
			"buffer":0,
			"byteLength":12912,
			"byteOffset":0,
			"target":34962
		},
		{
			"buffer":0,
			"byteLength":12912,
			"byteOffset":12912,
			"target":34962
		},
		{
			"buffer":0,
			"byteLength":8608,
			"byteOffset":25824,
			"target":34962
		},
		{
			"buffer":0,
			"byteLength":9372,
			"byteOffset":34432,
			"target":34963
		}
	],
	"samplers":[
		{
			"magFilter":9729,
			"minFilter":9987
		}
	],
	"buffers":[
		{
			"byteLength":43804,
			"uri":"bowling_ball.bin"
		}
	]
}
