{
	"asset":{
		"generator":"Khronos glTF Blender I/O v5.1.19",
		"version":"2.0"
	},
	"scene":0,
	"scenes":[
		{
			"name":"Scene",
			"nodes":[
				0,
				1
			]
		}
	],
	"nodes":[
		{
			"mesh":0,
			"name":"Cube.002"
		},
		{
			"mesh":1,
			"name":"Cube.003"
		}
	],
	"materials":[
		{
			"doubleSided":true,
			"name":"Dirt_Ground",
			"normalTexture":{
				"index":0
			},
			"pbrMetallicRoughness":{
				"baseColorTexture":{
					"index":1
				},
				"metallicFactor":0
			}
		},
		{
			"doubleSided":true,
			"name":"Grass_Ground",
			"normalTexture":{
				"index":2
			},
			"pbrMetallicRoughness":{
				"baseColorTexture":{
					"index":3
				},
				"metallicFactor":0
			}
		},
		{
			"doubleSided":true,
			"name":"Grass_Wall",
			"normalTexture":{
				"index":4
			},
			"pbrMetallicRoughness":{
				"baseColorTexture":{
					"index":5
				},
				"metallicFactor":0
			}
		},
		{
			"doubleSided":true,
			"name":"Wood2_Ground",
			"normalTexture":{
				"index":6
			},
			"pbrMetallicRoughness":{
				"baseColorTexture":{
					"index":7
				},
				"metallicFactor":0
			}
		},
		{
			"doubleSided":true,
			"name":"Wood2_Wall",
			"normalTexture":{
				"index":8
			},
			"pbrMetallicRoughness":{
				"baseColorTexture":{
					"index":9
				},
				"metallicFactor":0
			}
		},
		{
			"doubleSided":true,
			"name":"Wood_Ground",
			"normalTexture":{
				"index":10
			},
			"pbrMetallicRoughness":{
				"baseColorTexture":{
					"index":11
				},
				"metallicFactor":0
			}
		},
		{
			"doubleSided":true,
			"name":"Wood_Wall",
			"normalTexture":{
				"index":12
			},
			"pbrMetallicRoughness":{
				"baseColorTexture":{
					"index":13
				},
				"metallicFactor":0
			}
		}
	],
	"meshes":[
		{
			"name":"Cube.002",
			"primitives":[
				{
					"attributes":{
						"POSITION":0,
						"NORMAL":1,
						"TEXCOORD_0":2
					},
					"indices":3,
					"material":0
				},
				{
					"attributes":{
						"POSITION":4,
						"NORMAL":5,
						"TEXCOORD_0":6
					},
					"indices":7,
					"material":1
				},
				{
					"attributes":{
						"POSITION":8,
						"NORMAL":9,
						"TEXCOORD_0":10
					},
					"indices":11,
					"material":2
				},
				{
					"attributes":{
						"POSITION":12,
						"NORMAL":13,
						"TEXCOORD_0":14
					},
					"indices":15,
					"material":3
				},
				{
					"attributes":{
						"POSITION":16,
						"NORMAL":17,
						"TEXCOORD_0":18
					},
					"indices":19,
					"material":4
				}
			]
		},
		{
			"name":"Cube.003",
			"primitives":[
				{
					"attributes":{
						"POSITION":20,
						"NORMAL":21,
						"TEXCOORD_0":22
					},
					"indices":23,
					"material":5
				},
				{
					"attributes":{
						"POSITION":24,
						"NORMAL":25,
						"TEXCOORD_0":26
					},
					"indices":27,
					"material":6
				}
			]
		}
	],
	"textures":[
		{
			"sampler":0,
			"source":0
		},
		{
			"sampler":0,
			"source":1
		},
		{
			"sampler":0,
			"source":2
		},
		{
			"sampler":0,
			"source":3
		},
		{
			"sampler":0,
			"source":2
		},
		{
			"sampler":0,
			"source":3
		},
		{
			"sampler":0,
			"source":4
		},
		{
			"sampler":0,
			"source":5
		},
		{
			"sampler":0,
			"source":4
		},
		{
			"sampler":0,
			"source":5
		},
		{
			"sampler":0,
			"source":6
		},
		{
			"sampler":0,
			"source":7
		},
		{
			"sampler":0,
			"source":6
		},
		{
			"sampler":0,
			"source":7
		}
	],
	"images":[
		{
			"mimeType":"image/png",
			"name":"DirtGutter_Normal",
			"uri":"DirtGutter_Normal.png"
		},
		{
			"mimeType":"image/png",
			"name":"DirtGutter",
			"uri":"DirtGutter.png"
		},
		{
			"mimeType":"image/png",
			"name":"GrassGround2_Normal",
			"uri":"GrassGround2_Normal.png"
		},
		{
			"mimeType":"image/png",
			"name":"GrassGround2",
			"uri":"GrassGround2.png"
		},
		{
			"mimeType":"image/png",
			"name":"WoodenSlope_Normal",
			"uri":"WoodenSlope_Normal.png"
		},
		{
			"mimeType":"image/png",
			"name":"WoodenSlope",
			"uri":"WoodenSlope.png"
		},
		{
			"mimeType":"image/png",
			"name":"WoodenWall_Normal",
			"uri":"WoodenWall_Normal.png"
		},
		{
			"mimeType":"image/png",
			"name":"WoodenWall",
			"uri":"WoodenWall.png"
		}
	],
	"accessors":[
		{
			"bufferView":0,
			"componentType":5126,
			"count":36,
			"max":[
				1,
				0,
				-9.5
			],
			"min":[
				-1,
				-0.30000001192092896,
				-10.800000190734863
			],
			"type":"VEC3"
		},
		{
			"bufferView":1,
			"componentType":5126,
			"count":36,
			"type":"VEC3"
		},
		{
			"bufferView":2,
			"componentType":5126,
			"count":36,
			"type":"VEC2"
		},
		{
			"bufferView":3,
			"componentType":5123,
			"count":54,
			"type":"SCALAR"
		},
		{
			"bufferView":4,
			"componentType":5126,
			"count":44,
			"max":[
				1.2000000476837158,
				0,
				11
			],
			"min":[
				-1.2000000476837158,
				-0.5,
				-11
			],
			"type":"VEC3"
		},
		{
			"bufferView":5,
			"componentType":5126,
			"count":44,
			"type":"VEC3"
		},
		{
			"bufferView":6,
			"componentType":5126,
			"count":44,
			"type":"VEC2"
		},
		{
			"bufferView":7,
			"componentType":5123,
			"count":114,
			"type":"SCALAR"
		},
		{
			"bufferView":8,
			"componentType":5126,
			"count":46,
			"max":[
				1.2000000476837158,
				0,
				11
			],
			"min":[
				-1.2000000476837158,
				-0.5,
				-11
			],
			"type":"VEC3"
		},
		{
			"bufferView":9,
			"componentType":5126,
			"count":46,
			"type":"VEC3"
		},
		{
			"bufferView":10,
			"componentType":5126,
			"count":46,
			"type":"VEC2"
		},
		{
			"bufferView":11,
			"componentType":5123,
			"count":90,
			"type":"SCALAR"
		},
		{
			"bufferView":12,
			"componentType":5126,
			"count":4,
			"max":[
				1.000000238418579,
				0.30000001192092896,
				2
			],
			"min":[
				-1,
				0,
				0
			],
			"type":"VEC3"
		},
		{
			"bufferView":13,
			"componentType":5126,
			"count":4,
			"type":"VEC3"
		},
		{
			"bufferView":14,
			"componentType":5126,
			"count":4,
			"type":"VEC2"
		},
		{
			"bufferView":15,
			"componentType":5123,
			"count":6,
			"type":"SCALAR"
		},
		{
			"bufferView":16,
			"componentType":5126,
			"count":10,
			"max":[
				1.000000238418579,
				0.30000001192092896,
				2
			],
			"min":[
				-1,
				0,
				0
			],
			"type":"VEC3"
		},
		{
			"bufferView":17,
			"componentType":5126,
			"count":10,
			"type":"VEC3"
		},
		{
			"bufferView":18,
			"componentType":5126,
			"count":10,
			"type":"VEC2"
		},
		{
			"bufferView":19,
			"componentType":5123,
			"count":12,
			"type":"SCALAR"
		},
		{
			"bufferView":20,
			"componentType":5126,
			"count":64,
			"max":[
				1.199997901916504,
				0.5,
				11
			],
			"min":[
				-1.2000017166137695,
				0,
				-11
			],
			"type":"VEC3"
		},
		{
			"bufferView":21,
			"componentType":5126,
			"count":64,
			"type":"VEC3"
		},
		{
			"bufferView":22,
			"componentType":5126,
			"count":64,
			"type":"VEC2"
		},
		{
			"bufferView":23,
			"componentType":5123,
			"count":168,
			"type":"SCALAR"
		},
		{
			"bufferView":24,
			"componentType":5126,
			"count":96,
			"max":[
				1.199997901916504,
				0.5,
				11
			],
			"min":[
				-1.2000017166137695,
				0,
				-11
			],
			"type":"VEC3"
		},
		{
			"bufferView":25,
			"componentType":5126,
			"count":96,
			"type":"VEC3"
		},
		{
			"bufferView":26,
			"componentType":5126,
			"count":96,
			"type":"VEC2"
		},
		{
			"bufferView":27,
			"componentType":5123,
			"count":192,
			"type":"SCALAR"
		}
	],
	"bufferViews":[
		{
			"buffer":0,
			"byteLength":432,
			"byteOffset":0,
			"target":34962
		},
		{
			"buffer":0,
			"byteLength":432,
			"byteOffset":432,
			"target":34962
		},
		{
			"buffer":0,
			"byteLength":288,
			"byteOffset":864,
			"target":34962
		},
		{
			"buffer":0,
			"byteLength":108,
			"byteOffset":1152,
			"target":34963
		},
		{
			"buffer":0,
			"byteLength":528,
			"byteOffset":1260,
			"target":34962
		},
		{
			"buffer":0,
			"byteLength":528,
			"byteOffset":1788,
			"target":34962
		},
		{
			"buffer":0,
			"byteLength":352,
			"byteOffset":2316,
			"target":34962
		},
		{
			"buffer":0,
			"byteLength":228,
			"byteOffset":2668,
			"target":34963
		},
		{
			"buffer":0,
			"byteLength":552,
			"byteOffset":2896,
			"target":34962
		},
		{
			"buffer":0,
			"byteLength":552,
			"byteOffset":3448,
			"target":34962
		},
		{
			"buffer":0,
			"byteLength":368,
			"byteOffset":4000,
			"target":34962
		},
		{
			"buffer":0,
			"byteLength":180,
			"byteOffset":4368,
			"target":34963
		},
		{
			"buffer":0,
			"byteLength":48,
			"byteOffset":4548,
			"target":34962
		},
		{
			"buffer":0,
			"byteLength":48,
			"byteOffset":4596,
			"target":34962
		},
		{
			"buffer":0,
			"byteLength":32,
			"byteOffset":4644,
			"target":34962
		},
		{
			"buffer":0,
			"byteLength":12,
			"byteOffset":4676,
			"target":34963
		},
		{
			"buffer":0,
			"byteLength":120,
			"byteOffset":4688,
			"target":34962
		},
		{
			"buffer":0,
			"byteLength":120,
			"byteOffset":4808,
			"target":34962
		},
		{
			"buffer":0,
			"byteLength":80,
			"byteOffset":4928,
			"target":34962
		},
		{
			"buffer":0,
			"byteLength":24,
			"byteOffset":5008,
			"target":34963
		},
		{
			"buffer":0,
			"byteLength":768,
			"byteOffset":5032,
			"target":34962
		},
		{
			"buffer":0,
			"byteLength":768,
			"byteOffset":5800,
			"target":34962
		},
		{
			"buffer":0,
			"byteLength":512,
			"byteOffset":6568,
			"target":34962
		},
		{
			"buffer":0,
			"byteLength":336,
			"byteOffset":7080,
			"target":34963
		},
		{
			"buffer":0,
			"byteLength":1152,
			"byteOffset":7416,
			"target":34962
		},
		{
			"buffer":0,
			"byteLength":1152,
			"byteOffset":8568,
			"target":34962
		},
		{
			"buffer":0,
			"byteLength":768,
			"byteOffset":9720,
			"target":34962
		},
		{
			"buffer":0,
			"byteLength":384,
			"byteOffset":10488,
			"target":34963
		}
	],
	"samplers":[
		{
			"magFilter":9729,
			"minFilter":9987
		}
	],
	"buffers":[
		{
			"byteLength":10872,
			"uri":"Stage06.bin"
		}
	]
}
