{
	"asset":{
		"generator":"Khronos glTF Blender I/O v5.1.19",
		"version":"2.0"
	},
	"scene":0,
	"scenes":[
		{
			"name":"Scene",
			"nodes":[
				0,
				1
			]
		}
	],
	"nodes":[
		{
			"mesh":0,
			"name":"Wall.002"
		},
		{
			"mesh":1,
			"name":"Cube.002"
		}
	],
	"materials":[
		{
			"doubleSided":true,
			"name":"Material.024",
			"pbrMetallicRoughness":{
				"baseColorFactor":[
					0.2663556635379791,
					0.07818742841482162,
					0.012983033433556557,
					1
				],
				"metallicFactor":0
			}
		},
		{
			"doubleSided":true,
			"name":"Material.025",
			"pbrMetallicRoughness":{
				"baseColorFactor":[
					0.06301002949476242,
					0.36625269055366516,
					0.051269471645355225,
					1
				],
				"metallicFactor":0
			}
		},
		{
			"doubleSided":true,
			"name":"Material",
			"pbrMetallicRoughness":{
				"baseColorFactor":[
					0.07531645148992538,
					0.07531645148992538,
					0.07531645148992538,
					1
				],
				"metallicFactor":0
			}
		},
		{
			"doubleSided":true,
			"name":"Material.001",
			"pbrMetallicRoughness":{
				"baseColorFactor":[
					0.6109112501144409,
					0.34281086921691895,
					0.13083916902542114,
					1
				],
				"metallicFactor":0
			}
		}
	],
	"meshes":[
		{
			"name":"Cube.003",
			"primitives":[
				{
					"attributes":{
						"POSITION":0,
						"NORMAL":1,
						"TEXCOORD_0":2
					},
					"indices":3,
					"material":0
				}
			]
		},
		{
			"name":"Cube.013",
			"primitives":[
				{
					"attributes":{
						"POSITION":4,
						"NORMAL":5,
						"TEXCOORD_0":6
					},
					"indices":7,
					"material":1
				},
				{
					"attributes":{
						"POSITION":8,
						"NORMAL":9,
						"TEXCOORD_0":10
					},
					"indices":11,
					"material":2
				},
				{
					"attributes":{
						"POSITION":12,
						"NORMAL":13,
						"TEXCOORD_0":14
					},
					"indices":15,
					"material":3
				}
			]
		}
	],
	"accessors":[
		{
			"bufferView":0,
			"componentType":5126,
			"count":186,
			"max":[
				1.0000003576278687,
				0.2000105381011963,
				10.900001525878906
			],
			"min":[
				-1.0000003576278687,
				-6.594261321879458e-06,
				-9.90000057220459
			],
			"type":"VEC3"
		},
		{
			"bufferView":1,
			"componentType":5126,
			"count":186,
			"type":"VEC3"
		},
		{
			"bufferView":2,
			"componentType":5126,
			"count":186,
			"type":"VEC2"
		},
		{
			"bufferView":3,
			"componentType":5123,
			"count":342,
			"type":"SCALAR"
		},
		{
			"bufferView":4,
			"componentType":5126,
			"count":244,
			"max":[
				1.0000009536743164,
				0,
				10.899999618530273
			],
			"min":[
				-1.0000009536743164,
				-0.5,
				-9.900001525878906
			],
			"type":"VEC3"
		},
		{
			"bufferView":5,
			"componentType":5126,
			"count":244,
			"type":"VEC3"
		},
		{
			"bufferView":6,
			"componentType":5126,
			"count":244,
			"type":"VEC2"
		},
		{
			"bufferView":7,
			"componentType":5123,
			"count":858,
			"type":"SCALAR"
		},
		{
			"bufferView":8,
			"componentType":5126,
			"count":64,
			"max":[
				0.8000009655952454,
				0,
				8.200000762939453
			],
			"min":[
				-0.8000009655952454,
				-0.30000001192092896,
				-9.700000762939453
			],
			"type":"VEC3"
		},
		{
			"bufferView":9,
			"componentType":5126,
			"count":64,
			"type":"VEC3"
		},
		{
			"bufferView":10,
			"componentType":5126,
			"count":64,
			"type":"VEC2"
		},
		{
			"bufferView":11,
			"componentType":5123,
			"count":246,
			"type":"SCALAR"
		},
		{
			"bufferView":12,
			"componentType":5126,
			"count":24,
			"max":[
				0.4000000059604645,
				0.10000000149011612,
				6
			],
			"min":[
				-0.4000000059604645,
				0,
				-3
			],
			"type":"VEC3"
		},
		{
			"bufferView":13,
			"componentType":5126,
			"count":24,
			"type":"VEC3"
		},
		{
			"bufferView":14,
			"componentType":5126,
			"count":24,
			"type":"VEC2"
		},
		{
			"bufferView":15,
			"componentType":5123,
			"count":84,
			"type":"SCALAR"
		}
	],
	"bufferViews":[
		{
			"buffer":0,
			"byteLength":2232,
			"byteOffset":0,
			"target":34962
		},
		{
			"buffer":0,
			"byteLength":2232,
			"byteOffset":2232,
			"target":34962
		},
		{
			"buffer":0,
			"byteLength":1488,
			"byteOffset":4464,
			"target":34962
		},
		{
			"buffer":0,
			"byteLength":684,
			"byteOffset":5952,
			"target":34963
		},
		{
			"buffer":0,
			"byteLength":2928,
			"byteOffset":6636,
			"target":34962
		},
		{
			"buffer":0,
			"byteLength":2928,
			"byteOffset":9564,
			"target":34962
		},
		{
			"buffer":0,
			"byteLength":1952,
			"byteOffset":12492,
			"target":34962
		},
		{
			"buffer":0,
			"byteLength":1716,
			"byteOffset":14444,
			"target":34963
		},
		{
			"buffer":0,
			"byteLength":768,
			"byteOffset":16160,
			"target":34962
		},
		{
			"buffer":0,
			"byteLength":768,
			"byteOffset":16928,
			"target":34962
		},
		{
			"buffer":0,
			"byteLength":512,
			"byteOffset":17696,
			"target":34962
		},
		{
			"buffer":0,
			"byteLength":492,
			"byteOffset":18208,
			"target":34963
		},
		{
			"buffer":0,
			"byteLength":288,
			"byteOffset":18700,
			"target":34962
		},
		{
			"buffer":0,
			"byteLength":288,
			"byteOffset":18988,
			"target":34962
		},
		{
			"buffer":0,
			"byteLength":192,
			"byteOffset":19276,
			"target":34962
		},
		{
			"buffer":0,
			"byteLength":168,
			"byteOffset":19468,
			"target":34963
		}
	],
	"buffers":[
		{
			"byteLength":19636,
			"uri":"Stage07.bin"
		}
	]
}
