{
	"asset":{
		"generator":"Khronos glTF Blender I/O v5.1.19",
		"version":"2.0"
	},
	"scene":0,
	"scenes":[
		{
			"name":"Scene",
			"nodes":[
				0,
				1
			]
		}
	],
	"nodes":[
		{
			"mesh":0,
			"name":"Wall.002"
		},
		{
			"mesh":1,
			"name":"Cube"
		}
	],
	"materials":[
		{
			"doubleSided":true,
			"name":"Wood_Ground",
			"normalTexture":{
				"index":0
			},
			"pbrMetallicRoughness":{
				"baseColorTexture":{
					"index":1
				},
				"metallicFactor":0
			}
		},
		{
			"doubleSided":true,
			"name":"Wood_Wall",
			"normalTexture":{
				"index":2
			},
			"pbrMetallicRoughness":{
				"baseColorTexture":{
					"index":3
				},
				"metallicFactor":0
			}
		},
		{
			"doubleSided":true,
			"name":"Grass_Ground",
			"normalTexture":{
				"index":4
			},
			"pbrMetallicRoughness":{
				"baseColorTexture":{
					"index":5
				},
				"metallicFactor":0
			}
		},
		{
			"doubleSided":true,
			"name":"Grass_Wall",
			"normalTexture":{
				"index":6
			},
			"pbrMetallicRoughness":{
				"baseColorTexture":{
					"index":7
				},
				"metallicFactor":0
			}
		},
		{
			"doubleSided":true,
			"name":"Dirt_Ground",
			"normalTexture":{
				"index":8
			},
			"pbrMetallicRoughness":{
				"baseColorTexture":{
					"index":9
				},
				"metallicFactor":0
			}
		}
	],
	"meshes":[
		{
			"name":"Cube.003",
			"primitives":[
				{
					"attributes":{
						"POSITION":0,
						"NORMAL":1,
						"TEXCOORD_0":2
					},
					"indices":3,
					"material":0
				},
				{
					"attributes":{
						"POSITION":4,
						"NORMAL":5,
						"TEXCOORD_0":6
					},
					"indices":7,
					"material":1
				}
			]
		},
		{
			"name":"Cube",
			"primitives":[
				{
					"attributes":{
						"POSITION":8,
						"NORMAL":9,
						"TEXCOORD_0":10
					},
					"indices":11,
					"material":2
				},
				{
					"attributes":{
						"POSITION":12,
						"NORMAL":13,
						"TEXCOORD_0":14
					},
					"indices":15,
					"material":3
				},
				{
					"attributes":{
						"POSITION":16,
						"NORMAL":17,
						"TEXCOORD_0":18
					},
					"indices":19,
					"material":4
				}
			]
		}
	],
	"textures":[
		{
			"sampler":0,
			"source":0
		},
		{
			"sampler":0,
			"source":1
		},
		{
			"sampler":0,
			"source":0
		},
		{
			"sampler":0,
			"source":1
		},
		{
			"sampler":0,
			"source":2
		},
		{
			"sampler":0,
			"source":3
		},
		{
			"sampler":0,
			"source":2
		},
		{
			"sampler":0,
			"source":3
		},
		{
			"sampler":0,
			"source":4
		},
		{
			"sampler":0,
			"source":5
		}
	],
	"images":[
		{
			"mimeType":"image/png",
			"name":"WoodenWall_Normal",
			"uri":"WoodenWall_Normal.png"
		},
		{
			"mimeType":"image/png",
			"name":"WoodenWall",
			"uri":"WoodenWall.png"
		},
		{
			"mimeType":"image/png",
			"name":"GrassGround2_Normal",
			"uri":"GrassGround2_Normal.png"
		},
		{
			"mimeType":"image/png",
			"name":"GrassGround2",
			"uri":"GrassGround2.png"
		},
		{
			"mimeType":"image/png",
			"name":"DirtGutter_Normal",
			"uri":"DirtGutter_Normal.png"
		},
		{
			"mimeType":"image/png",
			"name":"DirtGutter",
			"uri":"DirtGutter.png"
		}
	],
	"accessors":[
		{
			"bufferView":0,
			"componentType":5126,
			"count":40,
			"max":[
				1.0000003576278687,
				0.2000105381011963,
				11.000001907348633
			],
			"min":[
				-1.0000003576278687,
				-6.594261321879458e-06,
				-10.000000953674316
			],
			"type":"VEC3"
		},
		{
			"bufferView":1,
			"componentType":5126,
			"count":40,
			"type":"VEC3"
		},
		{
			"bufferView":2,
			"componentType":5126,
			"count":40,
			"type":"VEC2"
		},
		{
			"bufferView":3,
			"componentType":5123,
			"count":102,
			"type":"SCALAR"
		},
		{
			"bufferView":4,
			"componentType":5126,
			"count":50,
			"max":[
				1.0000003576278687,
				0.2000105381011963,
				11.000001907348633
			],
			"min":[
				-1.0000003576278687,
				-6.594261321879458e-06,
				-10.000000953674316
			],
			"type":"VEC3"
		},
		{
			"bufferView":5,
			"componentType":5126,
			"count":50,
			"type":"VEC3"
		},
		{
			"bufferView":6,
			"componentType":5126,
			"count":50,
			"type":"VEC2"
		},
		{
			"bufferView":7,
			"componentType":5123,
			"count":96,
			"type":"SCALAR"
		},
		{
			"bufferView":8,
			"componentType":5126,
			"count":68,
			"max":[
				1,
				0,
				11
			],
			"min":[
				-1,
				-0.5,
				-10
			],
			"type":"VEC3"
		},
		{
			"bufferView":9,
			"componentType":5126,
			"count":68,
			"type":"VEC3"
		},
		{
			"bufferView":10,
			"componentType":5126,
			"count":68,
			"type":"VEC2"
		},
		{
			"bufferView":11,
			"componentType":5123,
			"count":246,
			"type":"SCALAR"
		},
		{
			"bufferView":12,
			"componentType":5126,
			"count":48,
			"max":[
				1,
				0,
				11
			],
			"min":[
				-1,
				-0.5,
				-10
			],
			"type":"VEC3"
		},
		{
			"bufferView":13,
			"componentType":5126,
			"count":48,
			"type":"VEC3"
		},
		{
			"bufferView":14,
			"componentType":5126,
			"count":48,
			"type":"VEC2"
		},
		{
			"bufferView":15,
			"componentType":5123,
			"count":120,
			"type":"SCALAR"
		},
		{
			"bufferView":16,
			"componentType":5126,
			"count":36,
			"max":[
				0.800000011920929,
				0,
				-8.800000190734863
			],
			"min":[
				-0.7999999523162842,
				-0.30000001192092896,
				-9.800000190734863
			],
			"type":"VEC3"
		},
		{
			"bufferView":17,
			"componentType":5126,
			"count":36,
			"type":"VEC3"
		},
		{
			"bufferView":18,
			"componentType":5126,
			"count":36,
			"type":"VEC2"
		},
		{
			"bufferView":19,
			"componentType":5123,
			"count":54,
			"type":"SCALAR"
		}
	],
	"bufferViews":[
		{
			"buffer":0,
			"byteLength":480,
			"byteOffset":0,
			"target":34962
		},
		{
			"buffer":0,
			"byteLength":480,
			"byteOffset":480,
			"target":34962
		},
		{
			"buffer":0,
			"byteLength":320,
			"byteOffset":960,
			"target":34962
		},
		{
			"buffer":0,
			"byteLength":204,
			"byteOffset":1280,
			"target":34963
		},
		{
			"buffer":0,
			"byteLength":600,
			"byteOffset":1484,
			"target":34962
		},
		{
			"buffer":0,
			"byteLength":600,
			"byteOffset":2084,
			"target":34962
		},
		{
			"buffer":0,
			"byteLength":400,
			"byteOffset":2684,
			"target":34962
		},
		{
			"buffer":0,
			"byteLength":192,
			"byteOffset":3084,
			"target":34963
		},
		{
			"buffer":0,
			"byteLength":816,
			"byteOffset":3276,
			"target":34962
		},
		{
			"buffer":0,
			"byteLength":816,
			"byteOffset":4092,
			"target":34962
		},
		{
			"buffer":0,
			"byteLength":544,
			"byteOffset":4908,
			"target":34962
		},
		{
			"buffer":0,
			"byteLength":492,
			"byteOffset":5452,
			"target":34963
		},
		{
			"buffer":0,
			"byteLength":576,
			"byteOffset":5944,
			"target":34962
		},
		{
			"buffer":0,
			"byteLength":576,
			"byteOffset":6520,
			"target":34962
		},
		{
			"buffer":0,
			"byteLength":384,
			"byteOffset":7096,
			"target":34962
		},
		{
			"buffer":0,
			"byteLength":240,
			"byteOffset":7480,
			"target":34963
		},
		{
			"buffer":0,
			"byteLength":432,
			"byteOffset":7720,
			"target":34962
		},
		{
			"buffer":0,
			"byteLength":432,
			"byteOffset":8152,
			"target":34962
		},
		{
			"buffer":0,
			"byteLength":288,
			"byteOffset":8584,
			"target":34962
		},
		{
			"buffer":0,
			"byteLength":108,
			"byteOffset":8872,
			"target":34963
		}
	],
	"samplers":[
		{
			"magFilter":9729,
			"minFilter":9987
		}
	],
	"buffers":[
		{
			"byteLength":8980,
			"uri":"Stage01.bin"
		}
	]
}
